<?xml version="1.0" standalone="no"?><!DOCTYPE svg PUBLIC "-//W3C//DTD SVG 1.1//EN" "http://www.w3.org/Graphics/SVG/1.1/DTD/svg11.dtd"><svg t="1746693366940" class="icon" viewBox="0 0 1575 1024" version="1.1" xmlns="http://www.w3.org/2000/svg" p-id="10335" xmlns:xlink="http://www.w3.org/1999/xlink" width="49.21875" height="32"><path d="M480.484176 780.448872l25.520799 25.520799a150.446685 150.446685 0 0 0 212.515788 0l20.164582-20.243349c121.696402-121.77517 333.582047-121.77517 455.278449 0l22.212548 22.212547c56.870422 56.94919 155.802902 56.94919 212.515788 0a86.014544 86.014544 0 0 1 121.460098 121.617634A319.482593 319.482593 0 0 1 1322.513004 1023.999212a319.482593 319.482593 0 0 1-227.560457-94.442709l-22.212547-22.212547c-56.870422-56.94919-155.802902-56.94919-212.515788 0l-20.164582 20.243349a322.081934 322.081934 0 0 1-455.278449 0l-25.520799-25.599566a150.446685 150.446685 0 0 0-212.515788 0A86.014544 86.014544 0 0 1 25.205727 780.370105a322.081934 322.081934 0 0 1 455.278449 0zM326.3354 52.003354A74.19936 74.19936 0 0 1 419.202752 3.403561L771.137719 113.757386c18.74676 5.907592 34.342803 18.904295 43.47988 36.390768l86.487152 169.035909 161.47419 308.612624c-111.220272-33.318821-239.296873-8.822005-323.893596 75.853485l-20.164582 20.164582a150.446685 150.446685 0 0 1-212.515788 0L480.484176 698.293955A320.34904 320.34904 0 0 0 235.831086 605.741675L727.500304 346.595291l-48.048418-92.315976-304.674228-109.251074A74.041824 74.041824 0 0 1 326.3354 52.003354z m914.180222 157.063188a182.190148 182.190148 0 0 1 182.11138 182.268915 182.190148 182.190148 0 1 1-182.11138-182.268915z" fill="#ffffff" p-id="10336"></path></svg>